<svg id="svg" version="1.1" xmlns="http://www.w3.org/2000/svg" xmlns:xlink="http://www.w3.org/1999/xlink" width="400" height="400" viewBox="0, 0, 400,400"><g id="svgg"><path id="path0" d="M0.000 200.000 L 0.000 400.000 200.000 400.000 L 400.000 400.000 400.000 200.000 L 400.000 0.000 200.000 0.000 L 0.000 0.000 0.000 200.000 M165.234 139.055 L 165.234 163.657 164.355 163.846 C 163.872 163.949,158.643 165.090,152.734 166.380 C 141.712 168.787,136.114 169.922,135.254 169.922 C 134.868 169.922,134.766 164.115,134.766 142.188 L 134.766 114.453 150.000 114.453 L 165.234 114.453 165.234 139.055 M226.122 115.057 C 287.902 124.040,308.952 198.848,260.008 235.480 C 258.478 236.625,255.516 238.470,253.425 239.581 C 251.333 240.692,249.663 241.721,249.714 241.867 C 249.764 242.012,252.382 244.561,255.533 247.531 C 258.684 250.500,269.734 261.191,280.090 271.289 L 298.918 289.648 276.383 289.749 C 263.989 289.805,253.610 289.717,253.320 289.554 C 253.029 289.391,244.648 281.343,234.696 271.669 C 224.744 261.996,212.767 250.394,208.080 245.888 C 203.393 241.382,196.977 235.210,193.822 232.172 C 190.667 229.135,188.212 226.518,188.367 226.357 C 188.646 226.067,192.336 225.178,215.234 219.882 C 235.633 215.164,239.861 213.199,246.258 205.469 C 264.422 183.518,253.883 153.297,225.457 145.821 C 221.839 144.869,221.092 144.819,207.715 144.630 L 193.750 144.434 193.750 129.443 L 193.750 114.453 207.860 114.453 C 218.535 114.453,222.981 114.600,226.122 115.057 M219.599 175.868 C 230.869 181.027,230.072 196.840,218.265 202.351 C 215.949 203.432,213.982 203.927,199.023 207.195 C 195.586 207.947,190.049 209.189,186.719 209.957 C 183.389 210.724,177.500 212.061,173.633 212.927 C 169.766 213.793,162.669 215.457,157.863 216.625 C 146.553 219.373,144.976 219.617,141.815 219.112 C 128.375 216.965,126.764 198.219,139.501 192.195 C 142.212 190.913,148.690 189.331,198.828 177.704 C 203.662 176.583,208.584 175.436,209.766 175.155 C 212.994 174.387,216.999 174.677,219.599 175.868 M165.234 263.281 L 165.234 289.844 150.000 289.844 L 134.766 289.844 134.668 274.316 C 134.508 248.833,134.367 251.686,135.938 248.613 C 137.812 244.945,140.328 242.927,144.628 241.638 C 147.123 240.891,163.470 236.965,164.941 236.760 C 165.103 236.737,165.234 248.672,165.234 263.281 " stroke="none" fill="#17222e" fill-rule="evenodd"></path><path id="path1" d="M134.766 142.188 C 134.766 164.115,134.868 169.922,135.254 169.922 C 136.114 169.922,141.712 168.787,152.734 166.380 C 158.643 165.090,163.872 163.949,164.355 163.846 L 165.234 163.657 165.234 139.055 L 165.234 114.453 150.000 114.453 L 134.766 114.453 134.766 142.188 M193.750 129.443 L 193.750 144.434 207.715 144.630 C 221.092 144.819,221.839 144.869,225.457 145.821 C 253.883 153.297,264.422 183.518,246.258 205.469 C 239.861 213.199,235.633 215.164,215.234 219.882 C 192.336 225.178,188.646 226.067,188.367 226.357 C 188.212 226.518,190.667 229.135,193.822 232.172 C 196.977 235.210,203.393 241.382,208.080 245.888 C 212.767 250.394,224.744 261.996,234.696 271.669 C 244.648 281.343,253.029 289.391,253.320 289.554 C 253.610 289.717,263.989 289.805,276.383 289.749 L 298.918 289.648 280.090 271.289 C 269.734 261.191,258.684 250.500,255.533 247.531 C 252.382 244.561,249.764 242.012,249.714 241.867 C 249.663 241.721,251.333 240.692,253.425 239.581 C 292.564 218.785,298.657 162.005,264.865 132.962 C 248.341 118.760,235.077 114.453,207.860 114.453 L 193.750 114.453 193.750 129.443 M209.766 175.155 C 208.584 175.436,203.662 176.583,198.828 177.704 C 148.690 189.331,142.212 190.913,139.501 192.195 C 126.764 198.219,128.375 216.965,141.815 219.112 C 144.976 219.617,146.553 219.373,157.863 216.625 C 162.669 215.457,169.766 213.793,173.633 212.927 C 177.500 212.061,183.389 210.724,186.719 209.957 C 190.049 209.189,195.586 207.947,199.023 207.195 C 213.982 203.927,215.949 203.432,218.265 202.351 C 234.875 194.599,227.482 170.941,209.766 175.155 M156.250 238.736 C 140.610 242.341,138.658 243.291,135.938 248.613 C 134.367 251.686,134.508 248.833,134.668 274.316 L 134.766 289.844 150.000 289.844 L 165.234 289.844 165.234 263.281 C 165.234 248.672,165.103 236.737,164.941 236.760 C 164.780 236.782,160.869 237.672,156.250 238.736 " stroke="none" fill="#fbfbfb" fill-rule="evenodd"></path></g>
  <defs>
    <linearGradient id="gradient" x1="16" x2="16" y1="32" y2="24" gradientUnits="userSpaceOnUse">
      <stop stop-color="#000"/>
      <stop offset="1" stop-color="#000" stop-opacity="0"/>
    </linearGradient>
  </defs>
	<style>
    @media (prefers-color-scheme:dark){:root{filter:invert(100%)}}
  </style>
</svg>